<svg width="192" height="26" viewBox="0 0 192 26" fill="none" xmlns="http://www.w3.org/2000/svg">
<g>
<path d="M46.8938 12.8834C45.921 12.3712 44.5669 12.0649 42.7007 11.7842C41.2695 11.5551 39.7611 11.3235 39.2232 11.0944C38.711 10.8652 38.5076 10.4816 38.5076 9.81514C38.5076 8.91945 39.2489 8.25528 40.9888 8.25528C42.7288 8.25528 43.5707 9.09952 43.5707 10.6594H48.2245C48.2245 6.97606 46.5103 4.72632 40.7573 4.72632C35.617 4.72632 32.9838 6.97606 32.9838 10.2758C32.9838 11.9386 33.5965 13.1406 34.698 13.8305C35.6942 14.469 37.4084 14.8268 38.8911 15.0326C40.1446 15.2127 41.653 15.4161 42.2914 15.6219C42.9299 15.8254 43.1871 16.2346 43.1871 16.8754C43.1871 17.7196 42.675 18.5382 40.5796 18.5382C38.4842 18.5382 37.8434 17.591 37.8434 16.0569H33.0352C33.0352 19.0994 34.4664 22.0671 40.7316 22.0671C46.9967 22.0671 48.7858 19.4081 48.7858 16.4147C48.7858 14.7777 48.1216 13.5756 46.8938 12.8857V12.8834Z" fill="#F84B2D"/>
<path d="M72.359 8.48377C72.359 7.58809 72.8969 7.12738 73.996 7.12738C74.8145 7.12738 75.5301 7.28173 75.8622 7.38229V3.95622C75.4272 3.80187 74.1995 3.52124 72.794 3.52124C69.5199 3.52124 67.2959 5.02964 67.2959 8.07218V9.17133H65.556V12.9809H67.2959V21.8022H72.359V12.9809H76.068V9.17133H72.359V8.48143V8.48377Z" fill="#F84B2D"/>
<path d="M84.2859 8.97084C79.8612 8.97084 77.1251 11.272 77.1251 15.6195C77.1251 19.4034 79.3491 22.0133 84.2344 22.0133C88.4533 22.0133 90.6796 20.1728 90.7288 17.1794H86.407C86.3298 18.2528 85.6142 18.7135 84.4636 18.7135C83.0838 18.7135 82.3402 18.0236 82.2139 16.2065H90.7288V15.0302C90.7288 10.9633 88.2989 8.96851 84.2835 8.96851H84.2859V8.97084ZM86.407 14.1368H82.2911C82.5202 12.6284 83.2125 12.0648 84.4636 12.0648C85.7148 12.0648 86.407 12.6518 86.407 13.8048V14.1368Z" fill="#F84B2D"/>
<path d="M105.499 11.0429H99.9756V4.9812H94.5033V21.8075H99.9756V15.3389H105.499V21.8075H110.972V4.9812H105.499V11.0429Z" fill="#F84B2D"/>
<path d="M120.256 8.97046C115.525 8.97046 112.995 11.5523 112.995 15.5162C112.995 19.4802 115.502 22.0106 120.256 22.0106C125.01 22.0106 127.494 19.4545 127.494 15.5162C127.494 11.578 124.961 8.97046 120.256 8.97046ZM120.256 18.4068C118.825 18.4068 118.058 17.3848 118.058 15.5162C118.058 13.6477 118.825 12.5766 120.256 12.5766C121.687 12.5766 122.431 13.5986 122.431 15.5162C122.431 17.4339 121.664 18.4068 120.256 18.4068Z" fill="#F84B2D"/>
<path d="M134.241 13.1639H134.19L134.344 9.17423H129.281V21.8074H134.344V18.5591C134.344 14.9787 135.623 13.2411 138.334 13.2411C138.921 13.2411 139.51 13.344 139.919 13.4703V9.2514C139.587 9.17423 139.049 9.02222 138.205 9.02222C135.878 9.02222 134.727 10.2757 134.241 13.1639Z" fill="#F84B2D"/>
<path d="M146.329 4.57202H141.24V8.02381H146.329V4.57202Z" fill="#F84B2D"/>
<path d="M146.304 9.17651H141.24V21.8097H146.304V9.17651Z" fill="#F84B2D"/>
<path d="M148.42 12.9861H153.635V13.0376L148.214 18.7905V21.8074H159.926V17.9978H154.454V17.972L159.926 12.1419V9.17651H148.42V12.9861Z" fill="#F84B2D"/>
<path d="M168.457 8.97046C163.726 8.97046 161.196 11.5523 161.196 15.5162C161.196 19.4802 163.703 22.0106 168.457 22.0106C173.212 22.0106 175.695 19.4545 175.695 15.5162C175.695 11.578 173.162 8.97046 168.457 8.97046ZM168.457 18.4068C167.026 18.4068 166.259 17.3848 166.259 15.5162C166.259 13.6477 167.026 12.5766 168.457 12.5766C169.888 12.5766 170.632 13.5986 170.632 15.5162C170.632 17.4339 169.865 18.4068 168.457 18.4068Z" fill="#F84B2D"/>
<path d="M187.218 8.97046C184.404 8.97046 183.024 10.3502 182.435 12.5509H182.384L182.538 9.17626H177.475V21.8094H182.538V15.9278C182.538 14.0873 183.459 13.1917 184.942 13.1917C186.196 13.1917 186.937 13.8044 186.937 15.1865V21.8094H192V13.9073C192 10.7361 190.337 8.9728 187.218 8.9728V8.97046Z" fill="#F84B2D"/>
<path d="M50.3737 18.3463C50.3737 16.3608 51.7231 14.9109 54.8521 14.9109H58.8722V13.9941C58.8722 12.8225 58.2618 12.315 56.9382 12.315C55.818 12.315 55.2076 12.8248 55.2076 13.6901C55.2076 13.7416 55.2076 13.945 55.2333 14.1999H50.8297C50.7783 13.945 50.7526 13.641 50.7526 13.3604C50.7526 10.6873 52.8643 9.03394 57.1907 9.03394C61.7464 9.03394 63.9096 11.0709 63.9096 14.4034V21.8098H58.8699C58.947 21.2742 59.0219 20.2055 59.0219 19.4174H58.9962C58.615 20.9959 57.3685 22.0132 55.0252 22.0132C51.9195 22.0132 50.369 20.5118 50.369 18.3486H50.3737V18.3463ZM58.8722 17.2775V16.9478H56.2764C55.4368 16.9478 54.9527 17.3547 54.9527 17.9651C54.9527 18.7298 55.5631 19.1625 56.5804 19.1625C58.0046 19.1625 58.8722 18.4749 58.8722 17.2799V17.2775Z" fill="#F84B2D"/>
<path d="M20.4956 3.95867C16.1481 8.74113 9.09955 8.74113 4.75208 3.95867C9.09955 -0.823789 16.1481 -0.823789 20.4956 3.95867Z" fill="#FFCA05"/>
<path d="M20.4956 22.0407C16.1481 26.8232 9.09955 26.8232 4.75208 22.0407C9.09955 17.2582 16.1481 17.2582 20.4956 22.0407Z" fill="#EF4D30"/>
<path d="M24.794 15.9985C25.9399 12.2544 24.8969 8.07297 21.6579 5.12866C19.7847 6.83117 18.6457 8.94761 18.2388 11.1529C20.8347 12.1609 23.0914 13.8493 24.794 15.9985Z" fill="#F2714B"/>
<path d="M21.6579 20.8714C23.2014 19.4682 24.2467 17.7821 24.794 15.9977C23.0938 13.8485 20.837 12.1624 18.2388 11.1521C17.6074 14.5805 18.7463 18.2264 21.6579 20.8714Z" fill="#EF4D30"/>
<path d="M7.00413 11.1529C6.59721 8.94761 5.45831 6.83117 3.58508 5.12866C0.346102 8.07297 -0.696918 12.2544 0.449001 15.9985C2.14917 13.8493 4.40593 12.1632 7.00413 11.1529Z" fill="#F2714B"/>
<path d="M3.58511 20.8714C6.49435 18.2264 7.63325 14.5805 7.00416 11.1521C4.4083 12.16 2.15154 13.8485 0.449036 15.9977C0.996271 17.7821 2.04163 19.4682 3.58511 20.8714Z" fill="#EF4D30"/>
</g>
</svg>
