<svg fill="none" height="65" width="65" xmlns="http://www.w3.org/2000/svg" xmlns:xlink="http://www.w3.org/1999/xlink"><clipPath id="a"><path d="m0 0h65v65h-65z"/></clipPath><g clip-path="url(#a)"><path d="m49.137 16.08c4.803-1.094 8.17-2.83 10.314-4.608v-.142h-20.796c2.135 1.826 5.552 3.627 10.482 4.75zm1.955 3.147.03 12.567c0 11.402-8.022 16.126-12.264 17.031a21.16 21.16 0 0 1 -.782.147 24.195 24.195 0 0 1 -9.047 6.004h30.422v-39.146c-2.308 1.405-5.137 2.565-8.36 3.397z" fill="#004f84"/><path d="m44.527 32.898c0 3.669-.86 7.143-2.387 10.244 2.716-2.108 5.14-5.819 5.14-11.348l-.03-12.55c-6.254-1.603-11.035-4.437-13.415-7.914h-3.556c8.39 3.698 14.248 11.974 14.248 21.568zm-22.946 11.649c.008.008.019.013.027.02l-.023-.024zm-21.452 1.016v9.413h11.737a24.125 24.125 0 0 1 -11.737-9.413zm10.485-34.233h-10.485v8.903c2.523-3.883 6.167-7 10.485-8.903z" fill="#004f84"/><g fill="#9acc65"><path d="m19.239 11.519c.09.178-.037.443-.252.477h-.993c.253.337-.216.603-.523.674-.433-.266-.721.55-.992-.035-.018-.16.09-.267.162-.39-.09-.07-.253-.036-.38-.036-.017.32-.414.586.038.85.036.408-.433.354-.686.46-.378-.124-.648-.532-1.082-.247-.072.266.56.512.09.76-.578.107-.505-.76-1.083-.601-.379.088-1.027-.212-1.136.266-.433-.143-.866.601-.993-.089-.054-.177.073-.319.217-.389h.47c0-.232-.055-.708.36-.726.559-.16 1.064.09 1.461.426.073-.178.18-.32.343-.46.487.034.993.282 1.443.123.072-.373-.956-.461-.27-.85.81-.141 1.858.194 2.345-.638.487 0 1.317-.265 1.461.425zm3.734.691c.127.725-.18 1.292-.56 1.822-.197.142-.378.284-.577.427-.107.371.11.937-.342 1.15-.596.035-1.064.407-1.73.336-.903.266-1.517 1.08-2.257 1.7-.397-.125-1.047-.054-1.083-.603 0-.194.145-.283.307-.335.018-.39.072-.85.487-1.028.235.054.397-.087.597-.124-.164-.23-.38-.53-.164-.796.47-.195.416-.673.47-1.062-.235-.106-.632.053-.74-.266 0-.194-.018-.444.217-.512.829.087 1.567-.072 2.165-.55.378-.194.865.248 1.135-.212.506-.123 1.425.318 1.552-.371.288-.071.45.194.523.423zm4.762.337c.019.211-.197.353-.342.46-.288-.16-.902.018-.83-.514.343-.23.902-.284 1.172.054zm-1.947.211c-.236.407.486 1.098-.307 1.063-.217-.16-.109-.62-.524-.513-.09-.124-.18-.32-.09-.46.073-.41.776-.426.921-.09zm6.007.796c.163.072.055.23.09.354-.342.356-.849.904-1.388.497-.198-.124-.326-.39-.218-.637.252-.532.903-.036 1.264-.249.09 0 .18-.017.252.035zm-1.119 1.276c-.072.087-.017.247-.179.265-.128 0-.272 0-.344-.124-.018-.141 0-.265.126-.353.18-.017.397.018.397.212zm-8.135 1.203c-.02.337-.271.691-.614.798-.216.07-.541.265-.74 0-.09-.142-.18-.338-.072-.514.29-.354.92.034 1.118-.46.09.054.235.034.308.176z"/><path d="m43.052 27.628c-.775-3.132-3.652-8.512-7.361-11.948-.199-.036-.377.177-.595.211-.144-.211-.27-.424-.396-.636-.47-.23-.704-.868-1.425-.708-.29.16-.182.495-.27.76-.236.036-.415-.07-.65-.088-.885-.177-1.39.53-2.292.336-.324.302-.56.71-.65 1.152-.686-.018.163-1.276-.776-1.276-.523-.195-1.045-.46-1.605-.601-1.334-.514-1.118 1.31-2.237 1.274-.126.638-.216 1.47.288 1.965.235.159.632.177.705.46.126.23.415.302.685.247.794.09.288-.954.433-1.344.036-.053.11-.212.18-.123.144.424.686.637.596 1.22.108.584-.486.495-.867.55-.523.247-1.678-.39-1.641.549-.108.123-.216.211-.379.176-.343-.053-.253-.513-.27-.814-.433-.371-.668-1.24-1.515-.921-.235.107-.217.39-.217.638-.181.283.38.565-.091.549-.252.105-.197.424-.216.672.162.265.524.213.83.213.108.07.433.284.126.39-.144.336.072.618.127.937-.163.231-.578.072-.867.125-.433.318-.415 1.027-.342 1.575.252.672 1.03.335 1.57.424.54-.194.108-1.186.9-.991.362-.07.344-.513.741-.495-.126.495.362.53.432.973.776.177-.07-.513.38-.726.216.354.614.585.396 1.063.417.956.687-.496 1.263-.39.2-.319-.288-.176-.397-.336-.107-.195-.36-.496-.126-.673.433.195.469.743.957.973-.09.355.18.586.342.85.109-.017.236.054.307-.088-.145-.3.36-.089.47-.336.054-.23-.272-.213-.182-.461.035-.248.38-.248.56-.178.108-.087.361-.176.27-.39-.018-.123-.108-.14-.217-.21.09-.283-.216-.797.253-.85.506.213 1.136.301 1.698.266.017.228.504.406.431.671h-1.298c-.523-.124-.505.496-.956.513-.414.302-.017.64.035.975.327.531.957.655 1.572.637-.055.248.108.46 0 .691-.073-.035-.273-.195-.432-.267-1.14.372-1.643-.707-2.726-.211-.578 1.097-1.516-.213-2.255-.337-.037-.248.108-.62-.126-.762-.307-.016-.92-.23-.956.249-.542-.07-.993.124-1.48.176-.289.48-.685-.052-1.118.124-.56.124.035.885-.524.974-.307.886-1.479.904-1.893 1.701-.181.424.18 1.115-.308 1.325-.342 1.72.812 2.835 1.859 3.826.505.07 1.064.018 1.605.035.469-.195.956-.372 1.552-.302.36.55 1.497-.07 1.48.904-.975 1.682 1.352 2.248.865 3.894-.885 2.019 1.046 3.223.685 5.188.198.514.83.689 1.425.602 1.046-.142 1.496-1.47 2.564-1.576.088-.585.738-.921.559-1.611.017-.567.575-.673 1.045-.726.054-.637.776-.903 1.12-1.31.72-.3.25-1.221.395-1.841-.144-.32-.343-.603-.27-1.008.488-1.063 1.642-1.577 2.436-2.426.072-.46.017-.956.034-1.452-.36-.46-1.117-.16-1.695-.247-.306-.443-.704-.78-1.027-1.187-.94-.283-1.373-1.24-1.57-2.177-.253-.549-1.371-.549-1.083-1.399.38-.106.325.46.703.39.2.566.577 1.15 1.173 1.433.307.673.956 1.115 1.371 1.7-.035.371.523.406.362.726.379.549.794-.124 1.245-.034.287-.764 1.28-.444 1.857-.764.217-.442.307-.937.27-1.486-.504-.62-1.28-.92-2.127-.901-.487.105-.506-.48-.866-.586.017-.105-.037-.23.053-.3.488.637 1.48.46 2.11.973.938-.054 1.768.212 2.473.602 1.408.07 1.84 1.487 2.29 2.549.163.035.47.124.525-.087-.056-.64-.165-1.24-.308-1.825zm-6.963-3.912c-.037.143-.29.09-.398.036-.178-.052-.161-.284-.343-.336.018-.302-.017-.585-.18-.815-.506 0-.233-.637-.468-.92-.145-.196-.56-.32-.47-.514.217.036.506-.07.686.09-.396 1.08.632 1.398 1.046 2.07.272.052.163.195.127.39z"/><path d="m37.17 21.93c-.18-.02-.108-.214-.124-.337.288-.142.143.247.124.336zm-11.906.971c.054.197-.162.249-.306.213-.09 0-.2.017-.253-.088 0-.284.486-.141.56-.125zm-19.952 4.976c-.09.213-.343.124-.487.088-.218-.425-.614-.088-.866-.425-.288-.017-.632.054-.812-.211 0-.143-.036-.302.126-.391.794.178 1.823-.052 2.039.939zm1.298 0c.38.052.867.035 1.083.337-.09.654-.667.018-1.082.211-.27.054-.56.143-.83.054-.162-.07-.053-.231-.09-.354.325-.054.559-.939.92-.248zm30.507 8.923c-.308.512-.36 1.203-.938 1.52.162.674-.596.726-.578 1.328-.127.09-.307.178-.468.09-.471-.355.415-.868-.253-1.062.307-.248.017-.585.162-.903.432-.408.506-1.204 1.209-1.276.29-.107.126-.706.613-.548.288.195.162.565.253.85zm-10.595 18.176c3.192-.822 6.174-2.276 8.574-4.334 0-.124-.018-.248-.09-.337-.503 0-.83-.584-1.389-.548-1.153-.195-2.725-.39-3.77.177-1.462 1.256-3.987.176-5.702.92-.973-.159-1.677.301-2.38.727-.09.282-.036.6-.055.901-.324.371-.793.78-1.425.638-1.353.3-2.922.106-4.366.16-.162-.141-.414-.248-.487-.427.217-.387.83-.14 1.263-.21.505-.177.29-.797.343-1.223-.289-.318-.578-.707-1.047-.778-.756-.213-.288-1.098-.72-1.523-.163-.034-.236-.265-.398-.247-.685-.424-.794.354-1.21.638-.486.973.615 1.026.868 1.699-.668.23-1.931-.372-2.382.495-.848.018-1.787-.088-2.345.515-.523.07-1.245-.179-1.606.21.867.532 1.768.992 2.688 1.4 1.031.47 2.112.85 3.225 1.147h12.41z"/><path d="m15 34.216c-.433-.056-.668-.586-1.209-.392-.361-.442-1.155.055-1.389-.637-.253-.053-.632-.088-.867.036-.36-.036-.09-.496-.161-.762-.109-.778-.813-1.007-1.48-1.185-.253-.602-1.208-.319-1.172-1.063-.488-.3-1.029.159-1.552 0-.343-.16-.902-.035-1.136-.248-.343-.124-.794 0-.938.284.144.797-.795.3-1.083.69-.054-.478-.632-.39-.956-.513-.36-.09-.288-.337 0-.461.108-.424.018-.76-.271-1.062-.163-.124-.433 0-.558-.213 0-.176-.2-.689.18-.6.144-.073.306-.231.252-.426 0-.318-.432-.265-.649-.212-.668.142-.343-.62-.433-.974.127-.619-.794-.265-.687-.725.524-.017 1.192.107 1.426-.425.325-.302.541.177.83.211.956-.37.451.764.939 1.028.144.052.415.089.521-.053.146-.389.091-.975.055-1.364.325-.07.596-.318.902-.46.037-.371.47-.371.686-.549.054.035.09.088.145.124.144-.017.324.054.432-.089-.07-.867 1.083-.476 1.155-1.186.343-.76 1.172-.832 1.948-.76.397-.248 1.155-.32 1.047-.974-.144-.107-.235-.337-.433-.301-.235-.195.09-.265.216-.335 1.01.21 1.659-.587 2.634-.303-.144.283-.487.141-.686.303-.089.158-.053.423.127.494.721-.017 1.497.089 2.164-.071.236-.477-.36-.637-.594-.815.306-.123.108-.531.162-.813-.144-.39-.632-.55-.993-.708-.036-.266.073-.603-.09-.815-.36-.088-.072-.159.09-.247.145-.23.343-.32.343-.603.468.018.848-.159 1.208-.371.074-.23.074-.55-.07-.69-.452-.16-.056-.603-.182-.939-.433-.46-1.029-.708-1.732-.583-.486.194-.83-.426-1.207.034-.326-.07-.705-.034-1.048-.034-.072-.125-.198-.23-.306-.338-.578-.37-.992.532-1.425.035-.523.089-1.228-.248-1.552.303-.487-.195-.56.407-.92.424 0 .46-.631.159-.939.248a22.541 22.541 0 0 0 -5.744 6.706v6.908c.58.345.96 1.165 1.758 1.008.18.176.253.407.307.637.163.584.793.602 1.244.797.957-.265.29.709.307 1.028-.54.706-.054 1.645-.09 2.46.92.726.92 2.265 2.255 2.584.975 1.061 1.19 2.656.992 4.214-.343.831.379 1.344.613 2-.09.549.433.584.74.886v.937c.054.442.524.478.813.813.45.727 1.514.87 2.345 1.133.234.036.414-.158.342-.424-.504-.194-.234-.868-.775-1.01.126-.83-.795-1.114-.524-2 .217-.319.56-.459.902-.637.686-.337-.487-1.468.613-1.185.253-.178.253-.567.181-.85.198-.124.451-.425.65-.602.18-.248-.018-.673.162-.938.396-.124.703-.567 1.046-.761.235-.108.542-.089.74-.337.053-.337.09-.761-.181-1.026-.071-.815.415-1.169.903-1.647-.054-.567.162-1.239-.344-1.61zm-2.978-18.696c.198.142.488.107.685.302-.324.176-.721.16-1.082.248 0-.248.324-.373.397-.55zm-.488 1.434c.037.266.344.283.524.389.338-.095.447.403.776.434-.3.034-.76.135-.776-.186-.469-.035-.378-.566-.865-.549-.506-.159.233-.053.341-.088zm-1.388-2.16c-.019.744 1.948-.088.83.726 0 .302-.18.726-.615.55-.18.052.02-.39-.162-.515-.126-.16-.378-.017-.486-.249-.18-.405.324-.264.433-.512zm-2.598 3.098c-.18-.442.108-.354.396-.55.145-.21.362-.353.433-.635-.054.725.885.124.993.548.162.265.433.212.703.212-.504.355-1.119.885-1.171 1.523-.38-.053-.76.088-.921.353.055.213-.036.285-.253.249.018-.46-.09-.939-.522-1.186-.181-.408.324-.195.342-.514zm-2.508 2.585c.27.037.613-.052.74.177-.037.336.126.638.434.814.502-.232.632.255.99.313a.838.838 0 0 1 .272-.03.486.486 0 0 1 -.272.03c-.52.142-.824.74-1.46.359 0-.21-.09-.37-.27-.512-.362.141 0-.496-.308-.638-.288-.106-.45-.265-.126-.513zm59.176-16.117c-.66-.877-1.755-1.031-2.586-1v-.584h-1.58v2.864h1.58v-.775c.498-.028 1.082.036 1.349.391.585.78.64 1.895.155 3.143-1.166 3-5.456 6.823-13.997 8.711-8.54-1.888-12.83-5.712-13.996-8.71-.485-1.249-.43-2.365.155-3.144.24-.32.74-.404 1.202-.396v.78h1.58v-2.864h-1.58v.58c-.81-.006-1.818.178-2.439 1.005-.906 1.206-1.031 2.83-.353 4.575 1.289 3.315 5.824 7.497 14.695 9.554l.032 13.304c0 9.72-6.637 13.704-10.146 14.453-7.522 1.604-12.838-1.972-14.406-3.216a3.254 3.254 0 0 0 .573-1.846c0-1.83-1.516-3.318-3.38-3.318-1.866 0-3.382 1.488-3.382 3.318s1.517 3.318 3.381 3.318c.608 0 1.178-.16 1.672-.438 1.866 1.615 7.748 5.387 15.868 3.655 3.928-.838 11.356-5.245 11.356-15.926l-.031-13.32c8.828-2.061 13.345-6.231 14.63-9.538.68-1.744.554-3.369-.352-4.575zm-43.143 38.025a1.212 1.212 0 0 1 -1.222-1.2c0-.66.548-1.198 1.222-1.198s1.222.538 1.222 1.199c0 .66-.549 1.199-1.222 1.199zm2.295 1.245a.75.75 0 0 1 -.14.11c.063-.051.122-.106.18-.16-.013.016-.024.034-.04.05z"/></g><path d="m1.043 4.553v3.49c0 .09-.05.136-.151.136h-.732c-.101 0-.152-.045-.152-.136v-7.467c0-.09.05-.135.152-.135h.73c.102 0 .152.045.152.135v3.186h3.24v-3.186c0-.09.052-.135.152-.135h.732c.1 0 .15.045.15.135v7.467c0 .09-.05.136-.15.136h-.732c-.1 0-.151-.045-.151-.136v-3.49zm10.391 3.107c.012.033.037.056.037.09 0 .124-1.058.587-1.992.587-1.677-.011-2.66-1.152-2.66-2.87 0-1.66.933-2.869 2.496-2.869 2.106 0 2.295 1.83 2.295 2.802 0 .158 0 .249-.139.249h-3.619c0 .689.303 1.931 1.74 1.931.82 0 1.476-.463 1.552-.463.037 0 .05.034.075.068l.215.474zm-.858-2.712c0-.587-.214-1.65-1.311-1.65-1.16 0-1.413 1.085-1.413 1.65zm6.394 1.446c0 .712.037.813.15 1.13.051.135.227.35.227.418 0 .045-.063.068-.113.09l-.492.271c-.05.023-.075.034-.1.034-.19 0-.417-.599-.48-.756-.151.124-.77.756-1.815.756-.997 0-1.64-.587-1.64-1.593 0-1.909 2.522-1.943 3.304-1.965v-.407c0-.655-.227-1.017-1.122-1.017-.845 0-1.425.362-1.539.362-.037 0-.075-.023-.088-.057l-.164-.395a.317.317 0 0 1 -.038-.147c0-.192 1.16-.52 1.967-.52 1.45 0 1.943.633 1.943 1.582zm-.96-.915c-.554.011-2.357.011-2.357 1.198 0 .451.277.96.92.96.656 0 1.236-.543 1.438-.7v-1.458zm5.31 2.497a.192.192 0 0 1 .025.079c0 .124-.606.282-1.072.282-.618 0-1.034-.226-1.185-.542-.177-.373-.177-1.243-.177-1.638v-5.864c0-.078.038-.124.088-.135l.63-.135c.102-.023.064-.012.152-.023.088 0 .088.09.088.147v6.033c0 .35.013.926.038 1.061a.484.484 0 0 0 .505.396c.327 0 .567-.147.655-.147.076 0 .076.034.089.068zm4.312-.216c.012.046.025.08.025.114 0 .147-.946.463-1.627.463-.542 0-.996-.18-1.185-.395-.366-.35-.366-.859-.366-1.277v-3.208h-.945c-.088 0-.089-.08-.089-.136v-.429c0-.08 0-.135.089-.135h.945v-1.548c0-.068.05-.113.139-.136l.669-.17c.037 0 .063-.01.088-.01.063 0 .063.056.063.124v1.74h1.866c.076 0 .139.01.139.079 0 .022-.013.045-.013.079l-.164.44a.18.18 0 0 1 -.164.102h-1.664v3.208c0 .452 0 .916.757.916.592 0 1.097-.305 1.21-.305.05 0 .088.033.088.067l.139.418zm1.097-7.467c0-.078.038-.124.088-.135l.63-.135c.103-.023.064-.013.153-.023.088 0 .088.09.088.147v3.22c.404-.294 1.06-.769 1.98-.769 1.4 0 1.5.882 1.5 1.695v3.75c0 .09-.05.136-.15.136h-.657c-.1 0-.151-.045-.151-.135v-3.774c0-.485-.139-.915-.82-.915-.82 0-1.387.441-1.702.69v3.999c0 .09-.05.135-.151.135h-.656c-.1 0-.151-.045-.151-.135v-7.75zm17.589 7.016c.05.057.076.102.076.158 0 .18-.9.87-1.997.87-2.122 0-2.871-1.762-2.871-4.1 0-2.147.612-3.954 2.784-3.954 1.097 0 1.996.688 1.996.87 0 .056-.024.1-.075.157l-.261.305c-.038.046-.075.09-.126.09-.087 0-.786-.666-1.51-.666-1.348 0-1.685 1.164-1.685 3.084 0 2.09.5 3.457 1.773 3.457.723 0 1.422-.666 1.51-.666.038 0 .088.056.125.09zm4.982-.915c0 .712.037.813.148 1.13.049.135.22.35.22.418 0 .045-.06.068-.11.09l-.479.271c-.05.023-.074.034-.099.034-.184 0-.405-.599-.467-.756-.147.124-.75.756-1.77.756-.971 0-1.598-.587-1.598-1.593 0-1.909 2.459-1.943 3.22-1.965v-.407c0-.655-.22-1.017-1.093-1.017-.824 0-1.39.362-1.5.362a.093.093 0 0 1 -.087-.057l-.16-.395a.335.335 0 0 1 -.036-.147c0-.192 1.131-.52 1.918-.52 1.414 0 1.893.633 1.893 1.582zm-.934-.915c-.541.011-2.3.011-2.3 1.198 0 .451.271.96.898.96.64 0 1.205-.543 1.402-.7zm3.567 2.564c0 .09-.05.136-.15.136h-.648c-.1 0-.15-.045-.15-.136v-3.873c0-.204-.038-.576-.212-.859-.1-.158-.138-.249-.138-.282a.157.157 0 0 1 .088-.113l.462-.26c.05-.034.1-.057.125-.057.224 0 .436.7.486.95.325-.317.774-.95 1.498-.95.287 0 .612.09.612.192 0 .023-.025.057-.038.09l-.274.577c-.013.022-.025.079-.076.079-.062 0-.174-.102-.411-.102-.437 0-.874.588-1.173.882v3.727zm6.79-.383c.012.033.037.056.037.09 0 .124-1.048.587-1.972.587-1.66-.011-2.633-1.152-2.633-2.87 0-1.66.923-2.869 2.47-2.869 2.085 0 2.272 1.83 2.272 2.802 0 .158 0 .249-.137.249h-3.581c0 .689.299 1.931 1.721 1.931.812 0 1.46-.463 1.535-.463.037 0 .05.034.075.068l.212.474zm-.849-2.712c0-.587-.212-1.65-1.298-1.65-1.148 0-1.397 1.085-1.397 1.65zm-50.918 52.893-.53-.125-.063-.015-.096-.017c-.076 0-.095.087-.114.172l-.009.04-.984 5.07a4.37 4.37 0 0 0 -.055.594 9.914 9.914 0 0 0 -.078-.583l-.898-5.068c-.006-.038-.026-.154-.145-.154h-.681c-.107 0-.123.093-.134.154l-1.039 4.923c-.056.28-.077.557-.1.84l-.065-.777-.92-4.997c-.011-.098-.036-.214-.123-.214l-.11.022-.039.01-.53.123c-.06.015-.147.037-.147.118l.023.132 1.33 6.686c-.001.033-.001.153.144.153h.779c.1 0 .125-.114.133-.152l1.097-5.532.886 5.53c.01.08.035.154.145.154h.81c.113 0 .133-.094.144-.145l1.483-6.695.022-.131c0-.078-.064-.096-.137-.116zm2.361 2.018h-1.525c-.108 0-.167.057-.167.16v.39c0 .101.06.16.167.16h.808v4.128c0 .103.06.16.167.16h.562c.108 0 .167-.058.167-.16v-4.648c0-.088-.02-.19-.178-.19zm-.324-2.431c-.391 0-.697.29-.697.662 0 .371.306.662.697.662.384 0 .697-.297.697-.662 0-.366-.313-.663-.697-.663zm5.227 7.002-.119-.38c.002-.043-.05-.087-.11-.087l-.19.064c-.188.08-.503.213-.849.213-.612 0-.612-.386-.612-.795v-2.877h1.391a.192.192 0 0 0 .175-.114l.14-.403.014-.084c0-.108-.117-.108-.156-.108h-1.564v-1.544c0-.059 0-.149-.091-.149l-.038.005-.038.006-.583.154c-.127.035-.146.115-.146.16v1.368h-.775c-.112 0-.112.092-.112.16v.39c0 .047 0 .16.112.16h.775v2.876c0 .382 0 .856.324 1.185.184.22.604.37 1.044.37.562 0 1.432-.278 1.432-.457l-.018-.094-.006-.02zm3.427-4.715c-.766 0-1.314.395-1.662.661v-2.85c0-.051 0-.17-.113-.17l-.052.005-.086.016-.54.123c-.05.012-.105.06-.105.16v7.037c0 .103.06.16.167.16h.562c.107 0 .167-.059.167-.16v-3.614c.261-.218.737-.607 1.424-.607.46 0 .666.245.666.794v3.427c0 .103.059.16.166.16h.563c.108 0 .167-.058.167-.16v-3.407c0-.762-.102-1.576-1.325-1.576zm4.737 0c-1.398 0-2.232.995-2.232 2.663s.774 2.622 2.124 2.622c1.412 0 2.255-.999 2.255-2.673 0-1.66-.782-2.612-2.146-2.612zm-.032 4.576c-.845 0-1.24-.637-1.24-2.005 0-.85.214-1.861 1.23-1.861 1.015 0 1.228 1.029 1.228 1.892 0 1.347-.387 1.974-1.218 1.974zm7.4-.093c-.106-.211-.115-.433-.115-.66v-3.653c0-.05 0-.17-.113-.17l-.054.006-.084.016-.54.123c-.066.015-.105.075-.105.159v3.715c-.215.185-.886.506-1.197.506-.571 0-.85-.26-.85-.795v-3.56c0-.05 0-.17-.112-.17l-.054.006-.085.016-.54.123c-.066.015-.104.075-.104.159v3.406c0 .762.125 1.575 1.616 1.575.642 0 1.233-.392 1.489-.586l.06.13c.1.225.204.456.354.456l.102-.034.426-.248c.054-.025.115-.053.115-.113 0-.049-.049-.134-.13-.269l-.08-.138zm4.394-.148c.002-.043-.05-.087-.11-.087l-.19.064c-.188.08-.503.213-.85.213-.611 0-.611-.386-.611-.795v-2.877h1.39a.19.19 0 0 0 .175-.115l.142-.402.013-.084c0-.108-.119-.108-.157-.108h-1.563v-1.544c0-.059 0-.149-.091-.149l-.038.005-.038.006-.583.154c-.128.035-.147.115-.147.16v1.368h-.773c-.113 0-.113.092-.113.16v.39c0 .047 0 .16.113.16h.773v2.876c0 .382 0 .856.326 1.185.181.22.601.37 1.042.37.562 0 1.432-.278 1.432-.457l-.02-.105zm8.77-6.295h-.628c-.107 0-.166.057-.166.16v2.857h-2.707v-2.856c0-.104-.059-.16-.166-.16h-.628c-.107 0-.166.056-.166.16v6.78c0 .103.06.16.166.16h.628c.107 0 .166-.057.166-.16v-3.133h2.707v3.134c0 .102.06.16.166.16h.628c.108 0 .167-.058.167-.16v-6.781c0-.104-.06-.16-.167-.16zm5.281 6.458c-.096-.286-.127-.38-.127-1.014v-2.01c0-.992-.557-1.474-1.702-1.474-.656 0-1.726.284-1.726.508l.036.148.14.358a.119.119 0 0 0 .11.075l.177-.061c.217-.093.62-.267 1.143-.267.77 0 .926.34.926.886v.334h-.004c-.7.02-2.83.084-2.83 1.82 0 .916.553 1.484 1.442 1.484.834 0 1.347-.478 1.54-.657l.003-.003c.119.313.272.66.427.66l.102-.035.425-.247c.055-.026.115-.054.115-.114l-.092-.195-.105-.197zm-1.025-1.807h.002v1.269l-.055.046c-.212.185-.654.57-1.141.57-.518 0-.754-.433-.754-.835 0-1.014 1.415-1.04 1.948-1.05zm4.636-2.691c-.541 0-.909.412-1.178.713l-.1.11c-.048-.205-.214-.823-.442-.823l-.13.058-.397.234a.174.174 0 0 0 -.093.129c-.001.068.077.205.123.281.165.28.178.653.178.761v3.519c0 .101.061.16.168.16h.562c.108 0 .167-.058.167-.16v-3.384c.009.003.158-.16.158-.16.238-.27.535-.605.822-.605.127 0 .209.037.268.064l.09.028c.058 0 .08-.053.09-.078l.245-.538.016-.035.02-.063c0-.136-.335-.21-.567-.21zm6.101 0c-.536 0-1.133.404-1.414.6-.164-.421-.502-.6-1.16-.6-.45 0-1.077.33-1.383.58-.028-.135-.134-.58-.316-.58l-.095.035-.485.257c-.053.037-.074.068-.074.104l.142.357c.057.25.064.51.064.71v3.519c0 .103.06.16.166.16h.563c.106 0 .167-.059.167-.16v-3.808c.168-.132.537-.413 1.013-.413.46 0 .666.245.666.794v3.427c0 .103.059.16.166.16h.562c.108 0 .167-.057.167-.16v-3.818l.07-.048c.216-.15.51-.355.953-.355.454 0 .656.245.656.794v3.427c0 .103.06.16.166.16h.563c.106 0 .167-.059.167-.16v-3.407c0-.762-.102-1.576-1.324-1.576z" fill="#004f84"/></g></svg>