<svg version="1.1" id="Layer_1" xmlns="http://www.w3.org/2000/svg" xmlns:xlink="http://www.w3.org/1999/xlink" x="0px" y="0px"
	 width="100%" viewBox="0 0 312 107" enable-background="new 0 0 312 107" xml:space="preserve">
<path fill="#FFFFFF" opacity="1.000000" stroke="none" 
	d="
M313.000000,97.000000 
	C313.000000,100.662880 313.000000,104.325768 313.000000,107.991486 
	C209.111145,107.994324 105.222298,107.994324 1.000000,107.994324 
	C1.000000,74.646515 1.000000,41.291912 1.468657,7.468658 
	C84.497307,7.000002 167.057297,6.994491 249.617279,7.034245 
	C251.529282,7.035165 253.583755,7.189016 255.326553,7.885330 
	C260.927277,10.123044 266.412903,12.648982 272.063171,15.393391 
	C273.325317,15.992413 274.467133,16.261791 275.608978,16.531170 
	C275.688751,16.157291 275.768494,15.783414 275.848236,15.409535 
	C274.781677,15.063449 273.715088,14.717362 272.396332,14.141214 
	C268.608124,11.763127 265.072083,9.615103 261.442596,7.410317 
	C263.495392,5.042476 265.247681,3.021240 267.000000,1.000002 
	C271.689240,1.000000 276.378510,1.000000 281.246521,1.293057 
	C283.408325,3.368867 285.391357,5.151621 287.780945,7.299866 
	C284.427551,9.201044 281.744476,10.722179 279.061401,12.243314 
	C286.300659,10.306457 292.729950,5.689020 300.971924,7.312605 
	C300.971924,38.359905 300.971924,69.221794 300.967133,100.423538 
	C301.101929,101.510490 301.241516,102.257591 301.381104,103.004692 
	C301.596802,102.977715 301.812531,102.950745 302.028229,102.923767 
	C302.028229,101.976875 302.028229,101.029984 302.039795,99.709717 
	C304.798035,94.326591 309.008789,96.177666 313.000000,97.000000 
M241.706467,82.426834 
	C241.059494,81.435486 240.412506,80.444138 239.315582,78.868294 
	C238.246338,77.457954 237.177094,76.047615 235.383606,73.681984 
	C235.383606,81.093613 235.383606,86.979904 235.383606,92.866196 
	C235.884903,92.883331 236.386215,92.900459 236.887512,92.917595 
	C236.887512,89.797142 236.705109,86.660538 236.979309,83.564369 
	C237.085648,82.363602 238.224426,81.254265 238.958588,80.756844 
	C239.618591,81.510490 240.278610,82.264130 241.003098,83.808945 
	C241.610184,84.946358 242.217255,86.083771 242.824326,87.221184 
	C243.193069,86.976173 243.561798,86.731155 243.930542,86.486137 
	C243.205521,85.331795 242.480515,84.177444 241.706467,82.426834 
M257.853790,76.673431 
	C253.051239,80.511559 252.721527,85.233963 257.207855,90.771515 
	C262.935303,94.485161 266.641357,93.493752 267.467285,86.992805 
	C264.578217,91.662674 261.357025,91.916000 257.260193,88.808571 
	C255.175674,84.482285 255.647934,80.555893 259.904480,77.020195 
	C262.525146,77.580139 265.145813,78.140076 267.400238,78.621765 
	C266.502228,74.837814 263.361847,73.687866 257.853790,76.673431 
M116.792351,90.731354 
	C109.450081,91.310944 108.959267,90.878914 108.947929,83.802940 
	C108.943253,80.884270 108.947159,77.965584 108.947159,75.046906 
	C108.293350,75.051376 107.639534,75.055840 106.985725,75.060310 
	C106.985725,78.748268 106.552849,82.507828 107.146637,86.097565 
	C107.507919,88.281677 109.026123,91.236816 110.799820,91.969795 
	C112.804329,92.798157 115.677475,91.524567 118.855240,90.743484 
	C119.337776,85.539009 119.820320,80.334534 120.302864,75.130058 
	C119.654373,75.098579 119.005890,75.067101 118.357399,75.035622 
	C118.045097,80.091499 117.732788,85.147369 116.792351,90.731354 
M88.207253,90.767746 
	C92.934402,93.847023 96.074051,93.764114 98.982201,90.483208 
	C101.788452,87.317261 102.010139,80.620018 99.070351,77.675148 
	C96.249268,74.849220 92.947998,73.314827 88.652069,76.860168 
	C83.861794,80.965652 83.611992,85.438393 88.207253,90.767746 
M266.156921,21.989447 
	C263.423584,23.748016 259.883575,24.924238 258.112549,27.377504 
	C253.352646,33.971073 258.380676,41.418026 266.033386,43.960743 
	C269.969116,45.268433 274.109192,46.021992 277.942108,47.561028 
	C281.787079,49.104904 282.266266,53.182068 279.341522,56.169453 
	C275.066040,60.536568 265.866974,59.901794 263.221283,54.474014 
	C261.127380,50.178261 258.402374,50.811012 253.814240,51.541271 
	C256.233337,55.134872 257.724274,58.638710 260.300720,60.912552 
	C265.909821,65.862854 272.809692,65.818237 279.530884,63.664818 
	C284.452301,62.088036 287.412476,58.181126 287.889954,53.020187 
	C288.322632,48.343643 287.028015,44.086319 282.335083,41.827412 
	C279.434479,40.431217 276.522919,38.676117 273.430511,38.125351 
	C259.367676,35.620750 260.975098,30.739252 268.322906,22.229652 
	C268.437439,21.881609 268.551941,21.533567 268.666443,21.185518 
	C268.084045,21.428362 267.501678,21.671206 266.156921,21.989447 
M180.716019,50.588844 
	C180.806717,49.143497 180.897415,47.698151 180.977081,46.428623 
	C187.417908,44.636772 191.396774,47.262367 194.139832,52.517490 
	C194.734116,53.656021 195.541855,54.688004 196.293900,55.738537 
	C202.558685,64.489723 202.561691,64.487572 210.021591,63.486076 
	C207.222748,59.238716 204.643524,55.061340 201.781189,51.087917 
	C200.264389,48.982330 198.255737,47.231060 196.533646,45.388874 
	C197.886932,44.817120 199.515503,44.240471 201.042175,43.463562 
	C206.020370,40.930176 207.784088,37.205471 207.002640,31.106266 
	C206.443878,26.745146 202.658340,22.396132 197.904709,22.131216 
	C190.005676,21.691011 182.064255,22.011322 174.278473,22.011322 
	C174.278473,36.383224 174.278473,50.140808 174.278473,63.736794 
	C176.508057,63.736794 178.438461,63.736794 180.716003,63.736794 
	C180.716003,59.505951 180.716003,55.535522 180.716019,50.588844 
M216.998337,25.650909 
	C216.998337,38.389416 216.998337,51.127918 216.998337,63.706406 
	C227.728546,63.706406 237.808716,63.706406 248.059601,63.706406 
	C247.956619,61.659302 247.869019,59.918129 247.755112,57.653973 
	C239.680222,57.653973 231.957199,57.653973 224.254791,57.653973 
	C224.254791,53.180561 224.254791,49.256779 224.254791,44.894775 
	C231.398438,44.894775 238.299988,44.894775 245.208496,44.894775 
	C245.208496,42.696892 245.208496,40.961494 245.208496,38.997784 
	C239.099396,38.997784 233.282608,39.132339 227.481934,38.886444 
	C226.294159,38.836094 224.343384,37.503899 224.170486,36.513569 
	C223.705460,33.850147 224.011642,31.052074 224.011642,27.975925 
	C232.088272,27.975925 239.355560,27.975925 246.808350,27.975925 
	C246.808350,25.888008 246.808350,24.150578 246.808350,21.999916 
	C237.550995,21.999916 228.435699,21.933720 219.325409,22.116255 
	C218.533005,22.132132 217.773422,23.786480 216.998337,25.650909 
M131.863632,56.351105 
	C134.282852,64.438255 141.439728,64.655014 147.670914,64.790131 
	C155.180862,64.952988 161.957718,61.741753 162.227402,52.971081 
	C162.541870,42.744526 162.300842,32.500889 162.300842,22.241354 
	C160.431229,22.241354 158.366241,22.241354 155.999313,22.241354 
	C155.999313,31.602711 156.145844,40.729046 155.924469,49.846447 
	C155.840408,53.308826 155.618286,56.999195 150.878296,58.048584 
	C141.494156,60.126133 137.006821,56.596428 137.001526,46.790966 
	C136.997070,38.543140 137.000610,30.295303 137.000610,22.154003 
	C134.367294,22.154003 132.408508,22.154003 129.434326,22.154003 
	C130.048706,33.493877 130.652542,44.639408 131.863632,56.351105 
M81.182701,57.377258 
	C82.045547,45.739479 82.908394,34.101696 83.791130,22.195585 
	C80.505844,22.195585 78.442902,22.195585 75.997749,22.195585 
	C75.997749,31.830021 75.977760,41.275318 76.008377,50.720455 
	C76.019386,54.117123 74.920235,56.657127 71.516960,58.019417 
	C64.460945,60.843853 56.318939,56.210720 56.874538,47.934029 
	C57.448776,39.379589 57.002232,30.756622 57.002232,22.280617 
	C54.354336,22.280617 52.285290,22.280617 49.997780,22.280617 
	C49.997780,24.036383 49.997749,25.511311 49.997784,26.986237 
	C49.997944,33.807964 49.708172,40.647083 50.115993,47.444355 
	C50.332184,51.047592 51.131798,54.900074 52.761272,58.079796 
	C57.252094,66.843071 76.384293,67.580856 81.182701,57.377258 
M32.438934,21.984169 
	C26.353052,21.984169 20.267170,21.984169 14.223216,21.984169 
	C14.223216,36.312851 14.223216,50.051876 14.223216,63.755871 
	C16.381271,63.755871 18.286175,63.755871 20.646784,63.755871 
	C20.646784,57.777355 20.646784,52.043255 20.646784,45.831738 
	C27.000019,45.831738 32.905891,45.831738 38.733734,45.831738 
	C38.733734,43.378578 38.733734,41.429981 38.733734,38.991631 
	C32.672649,38.991631 26.767351,38.991631 20.932941,38.991631 
	C20.932941,35.105888 20.932941,31.720661 20.932941,27.832106 
	C28.035107,27.832106 34.757820,27.832106 41.688385,27.832106 
	C41.587471,25.571898 41.510342,23.844379 41.427284,21.984169 
	C38.398739,21.984169 35.907501,21.984169 32.438934,21.984169 
M110.037628,42.511665 
	C110.037643,39.188717 110.220726,35.852818 109.986778,32.546425 
	C109.747322,29.162189 110.720047,27.555624 114.415115,27.943056 
	C117.161110,28.230974 119.961548,27.999741 122.771317,27.999741 
	C122.771317,25.786877 122.771317,24.052298 122.771317,22.200390 
	C112.147720,22.200390 101.752762,22.200390 91.183380,22.200390 
	C91.183380,24.135303 91.183380,25.869978 91.183380,28.164276 
	C95.218979,28.164276 99.083557,28.164276 103.275528,28.164276 
	C103.275528,40.449947 103.275528,52.177052 103.275528,63.694481 
	C105.704910,63.694481 107.777046,63.694481 110.037628,63.694481 
	C110.037628,56.762802 110.037628,50.135014 110.037628,42.511665 
M179.351486,89.894127 
	C182.786224,93.174026 186.802429,94.438934 190.755386,91.439110 
	C194.432449,88.648643 194.800186,84.468460 193.351700,80.164360 
	C191.980957,76.091293 188.958572,74.633102 184.936249,75.007942 
	C178.916153,75.568947 176.254929,81.989311 179.351486,89.894127 
M273.996643,90.324013 
	C274.272095,91.198204 274.512878,92.818275 274.828247,92.832939 
	C278.610138,93.008781 282.403076,92.946587 286.193146,92.946587 
	C286.202881,92.296211 286.212585,91.645844 286.222321,90.995468 
	C283.903168,90.995468 281.462036,91.433502 279.309784,90.834137 
	C277.980560,90.463959 276.453766,88.616287 276.232361,87.236656 
	C276.088684,86.341331 277.960693,84.577019 279.249268,84.135887 
	C280.849274,83.588135 282.779419,84.004585 284.566956,84.004585 
	C282.843750,82.995644 280.979431,83.398277 279.429657,82.872948 
	C278.101532,82.422768 277.133514,80.910225 276.006226,79.867531 
	C277.169098,78.913010 278.199982,77.479950 279.525299,77.114418 
	C281.592224,76.544357 283.858887,76.698418 286.040894,76.545647 
	C285.997711,76.121185 285.954498,75.696732 285.911285,75.272278 
	C282.042236,75.272278 278.173187,75.272278 273.996399,75.272278 
	C273.996399,80.102440 273.996399,84.726967 273.996643,90.324013 
M220.536636,74.974869 
	C218.867920,75.076622 216.805710,74.259102 216.924438,77.403328 
	C217.116531,82.490913 216.976135,87.591064 216.976135,92.431511 
	C221.290604,92.431511 225.138824,92.431511 228.987045,92.431511 
	C228.984909,91.941910 228.982788,91.452316 228.980652,90.962715 
	C226.464966,90.962715 223.881485,91.330704 221.448380,90.882423 
	C217.037537,90.069748 219.090317,86.844376 219.012161,83.923279 
	C222.145737,83.923279 224.879135,83.923279 227.612518,83.923279 
	C218.289352,81.873833 218.289352,81.873833 219.559982,77.223816 
	C222.610367,77.024208 225.660736,76.824608 228.711105,76.625008 
	C228.686081,76.074951 228.661041,75.524902 228.636002,74.974846 
	C226.247330,74.974846 223.858658,74.974846 220.536636,74.974869 
M65.988457,82.564667 
	C65.988457,86.019958 65.988457,89.475250 65.988457,92.930542 
	C66.492584,92.937897 66.996712,92.945251 67.500832,92.952606 
	C67.793457,90.327072 67.154503,86.690346 68.621147,85.339149 
	C70.345428,83.750618 73.896919,84.145439 76.670540,83.677704 
	C76.981743,87.394363 77.218452,90.221436 77.455170,93.048515 
	C77.769524,92.998291 78.083885,92.948059 78.398239,92.897835 
	C78.398239,86.944229 78.398239,80.990631 78.398239,75.037033 
	C78.035774,75.027794 77.673309,75.018555 77.310844,75.009323 
	C77.105362,77.652763 76.899872,80.296204 76.732155,82.453819 
	C69.332893,84.992531 66.944984,81.445160 67.756660,73.980476 
	C67.167259,74.343582 66.577858,74.706688 65.988457,75.069786 
	C65.988457,77.246666 65.988457,79.423553 65.988457,82.564667 
M152.946579,80.676094 
	C154.470154,84.897453 155.993744,89.118813 157.517319,93.340172 
	C158.073242,93.325432 158.629166,93.310692 159.185089,93.295959 
	C161.339920,87.319633 163.494736,81.343315 165.649567,75.366997 
	C165.152939,75.168541 164.656311,74.970085 164.159683,74.771629 
	C162.408218,79.518776 160.656738,84.265923 158.429825,90.301704 
	C156.099091,84.264259 154.255447,79.488548 152.411804,74.712837 
	C151.958939,74.886459 151.506088,75.060089 151.053223,75.233711 
	C151.531540,76.825958 152.009842,78.418198 152.946579,80.676094 
M60.683128,75.424965 
	C56.467113,75.424965 52.251095,75.424965 48.035080,75.424965 
	C48.020134,75.789993 48.005188,76.155029 47.990242,76.520058 
	C49.589302,76.794167 51.188362,77.068283 53.526630,77.469109 
	C53.526630,82.695396 53.526630,87.863632 53.526630,93.031860 
	C54.020374,93.001457 54.514122,92.971062 55.007866,92.940659 
	C55.007866,90.062309 55.311069,87.144142 54.939575,84.314568 
	C54.322083,79.611267 55.408752,76.499329 60.683128,75.424965 
M133.780823,77.305389 
	C135.237228,77.017197 136.693619,76.729004 138.150009,76.440811 
	C138.104691,76.174202 138.059357,75.907600 138.014023,75.640991 
	C133.696564,75.640991 129.379105,75.640991 125.061638,75.640991 
	C125.055023,75.994682 125.048401,76.348366 125.041786,76.702057 
	C126.901764,76.872383 128.761749,77.042709 131.359314,77.280579 
	C131.359314,82.536469 131.359314,87.764450 131.359314,92.992439 
	C131.969116,92.974678 132.578934,92.956924 133.188736,92.939163 
	C133.188736,87.964775 133.188736,82.990395 133.780823,77.305389 
M203.823563,90.951416 
	C203.199554,89.262672 202.170563,87.605499 202.035919,85.878601 
	C201.756439,82.293869 201.951538,78.672134 201.951538,75.065620 
	C201.442017,75.077553 200.932495,75.089493 200.422974,75.101433 
	C200.422974,80.993011 200.422974,86.884583 200.422974,92.342613 
	C204.049286,92.342613 207.544006,92.342613 211.038727,92.342613 
	C211.012314,91.888283 210.985901,91.433952 210.959488,90.979622 
	C208.887833,90.979622 206.816162,90.979622 203.823563,90.951416 
M17.317896,90.869606 
	C17.789410,91.620346 18.260923,92.371078 19.457453,94.276184 
	C20.330933,90.908890 20.913233,88.664101 21.495535,86.419312 
	C21.215361,86.326286 20.935184,86.233261 20.655010,86.140244 
	C20.234173,86.694672 19.813334,87.249100 18.781412,88.608597 
	C17.432091,83.636475 16.252405,79.289436 15.072721,74.942406 
	C14.727049,75.035172 14.381377,75.127945 14.035705,75.220711 
	C15.026196,80.180046 16.016687,85.139374 17.317896,90.869606 
M248.000000,85.411743 
	C248.000000,81.950081 248.000000,78.488426 248.000000,75.026764 
	C247.294632,75.061562 246.589264,75.096367 245.883896,75.131165 
	C247.784439,80.950684 242.880753,87.037956 246.339478,92.796158 
	C246.892990,92.779869 247.446487,92.763580 248.000000,92.747292 
	C248.000000,90.620560 248.000000,88.493835 248.000000,85.411743 
M42.804951,86.383957 
	C42.804951,82.624634 42.804951,78.865318 42.804951,75.105995 
	C42.334026,75.124390 41.863098,75.142776 41.392174,75.161163 
	C41.392174,81.052696 41.392174,86.944237 41.392174,92.835770 
	C41.863091,92.847443 42.334007,92.859108 42.804924,92.870781 
	C42.804924,91.022781 42.804924,89.174774 42.804951,86.383957 
M170.907532,80.642418 
	C170.907532,82.797455 170.907532,84.952484 170.907532,87.107521 
	C170.907532,89.049210 170.907532,90.990906 170.907532,92.932594 
	C171.354630,92.894814 171.801743,92.857033 172.248840,92.819252 
	C172.248840,86.918442 172.248840,81.017639 172.248840,75.116829 
	C171.875610,75.109779 171.502365,75.102737 171.129135,75.095688 
	C171.055267,76.625656 170.981400,78.155617 170.907532,80.642418 
z"/>
<path fill="#000000" opacity="1.000000" stroke="none" 
	d="
M266.531342,1.000002 
	C265.247681,3.021240 263.495392,5.042476 261.442596,7.410317 
	C265.072083,9.615103 268.608124,11.763127 272.216125,14.310445 
	C272.288086,14.709738 271.942902,15.063745 271.942902,15.063747 
	C266.412903,12.648982 260.927277,10.123044 255.326553,7.885330 
	C253.583755,7.189016 251.529282,7.035165 249.617279,7.034245 
	C167.057297,6.994491 84.497307,7.000002 1.468657,7.000001 
	C1.000000,5.003222 1.000000,3.006444 1.000000,1.004833 
	C89.354225,1.000000 177.708450,1.000000 266.531342,1.000002 
z"/>
<path fill="#000000" opacity="1.000000" stroke="none" 
	d="
M300.971924,100.083687 
	C300.971924,69.221794 300.971924,38.359905 300.971924,7.312605 
	C292.729950,5.689020 286.300659,10.306457 279.061401,12.243314 
	C281.744476,10.722179 284.427551,9.201044 287.780945,7.299866 
	C285.391357,5.151621 283.408325,3.368867 281.712646,1.293057 
	C292.297607,1.000000 302.595215,1.000000 313.000000,1.000000 
	C313.000000,32.687485 313.000000,64.375084 313.000000,96.531342 
	C309.008789,96.177666 304.798035,94.326591 301.775818,99.893219 
	C301.324188,100.327957 301.148071,100.205826 300.971924,100.083687 
z"/>
<path fill="#040404" opacity="1.000000" stroke="none" 
	d="
M180.716003,51.076969 
	C180.716003,55.535522 180.716003,59.505951 180.716003,63.736794 
	C178.438461,63.736794 176.508057,63.736794 174.278473,63.736794 
	C174.278473,50.140808 174.278473,36.383224 174.278473,22.011322 
	C182.064255,22.011322 190.005676,21.691011 197.904709,22.131216 
	C202.658340,22.396132 206.443878,26.745146 207.002640,31.106266 
	C207.784088,37.205471 206.020370,40.930176 201.042175,43.463562 
	C199.515503,44.240471 197.886932,44.817120 196.533646,45.388874 
	C198.255737,47.231060 200.264389,48.982330 201.781189,51.087917 
	C204.643524,55.061340 207.222748,59.238716 210.021591,63.486076 
	C202.561691,64.487572 202.558685,64.489723 196.293900,55.738537 
	C195.541855,54.688004 194.734116,53.656021 194.139832,52.517490 
	C191.396774,47.262367 187.417908,44.636772 180.977081,46.428623 
	C180.897415,47.698151 180.806717,49.143497 180.716003,51.076969 
M194.101471,39.991417 
	C198.078079,40.049679 199.980774,38.118881 200.019012,34.113991 
	C200.051025,30.760567 198.824844,28.289434 195.318481,28.083584 
	C190.591827,27.806095 185.836624,28.014702 181.033493,28.014702 
	C181.033493,32.279144 181.033493,35.986229 181.033493,39.991489 
	C185.291412,39.991489 189.236755,39.991489 194.101471,39.991417 
z"/>
<path fill="#010101" opacity="1.000000" stroke="none" 
	d="
M216.998459,25.165335 
	C217.773422,23.786480 218.533005,22.132132 219.325409,22.116255 
	C228.435699,21.933720 237.550995,21.999916 246.808350,21.999916 
	C246.808350,24.150578 246.808350,25.888008 246.808350,27.975925 
	C239.355560,27.975925 232.088272,27.975925 224.011642,27.975925 
	C224.011642,31.052074 223.705460,33.850147 224.170486,36.513569 
	C224.343384,37.503899 226.294159,38.836094 227.481934,38.886444 
	C233.282608,39.132339 239.099396,38.997784 245.208496,38.997784 
	C245.208496,40.961494 245.208496,42.696892 245.208496,44.894775 
	C238.299988,44.894775 231.398438,44.894775 224.254791,44.894775 
	C224.254791,49.256779 224.254791,53.180561 224.254791,57.653973 
	C231.957199,57.653973 239.680222,57.653973 247.755112,57.653973 
	C247.869019,59.918129 247.956619,61.659302 248.059601,63.706406 
	C237.808716,63.706406 227.728546,63.706406 216.998337,63.706406 
	C216.998337,51.127918 216.998337,38.389416 216.998459,25.165335 
z"/>
<path fill="#010101" opacity="1.000000" stroke="none" 
	d="
M131.560013,56.068020 
	C130.652542,44.639408 130.048706,33.493877 129.434326,22.154003 
	C132.408508,22.154003 134.367294,22.154003 137.000610,22.154003 
	C137.000610,30.295303 136.997070,38.543140 137.001526,46.790966 
	C137.006821,56.596428 141.494156,60.126133 150.878296,58.048584 
	C155.618286,56.999195 155.840408,53.308826 155.924469,49.846447 
	C156.145844,40.729046 155.999313,31.602711 155.999313,22.241354 
	C158.366241,22.241354 160.431229,22.241354 162.300842,22.241354 
	C162.300842,32.500889 162.541870,42.744526 162.227402,52.971081 
	C161.957718,61.741753 155.180862,64.952988 147.670914,64.790131 
	C141.439728,64.655014 134.282852,64.438255 131.560013,56.068020 
z"/>
<path fill="#010101" opacity="1.000000" stroke="none" 
	d="
M81.088226,57.759659 
	C76.384293,67.580856 57.252094,66.843071 52.761272,58.079796 
	C51.131798,54.900074 50.332184,51.047592 50.115993,47.444355 
	C49.708172,40.647083 49.997944,33.807964 49.997784,26.986237 
	C49.997749,25.511311 49.997780,24.036383 49.997780,22.280617 
	C52.285290,22.280617 54.354336,22.280617 57.002232,22.280617 
	C57.002232,30.756622 57.448776,39.379589 56.874538,47.934029 
	C56.318939,56.210720 64.460945,60.843853 71.516960,58.019417 
	C74.920235,56.657127 76.019386,54.117123 76.008377,50.720455 
	C75.977760,41.275318 75.997749,31.830021 75.997749,22.195585 
	C78.442902,22.195585 80.505844,22.195585 83.791130,22.195585 
	C82.908394,34.101696 82.045547,45.739479 81.088226,57.759659 
z"/>
<path fill="#030303" opacity="1.000000" stroke="none" 
	d="
M267.843201,22.587496 
	C260.975098,30.739252 259.367676,35.620750 273.430511,38.125351 
	C276.522919,38.676117 279.434479,40.431217 282.335083,41.827412 
	C287.028015,44.086319 288.322632,48.343643 287.889954,53.020187 
	C287.412476,58.181126 284.452301,62.088036 279.530884,63.664818 
	C272.809692,65.818237 265.909821,65.862854 260.300720,60.912552 
	C257.724274,58.638710 256.233337,55.134872 253.814240,51.541271 
	C258.402374,50.811012 261.127380,50.178261 263.221283,54.474014 
	C265.866974,59.901794 275.066040,60.536568 279.341522,56.169453 
	C282.266266,53.182068 281.787079,49.104904 277.942108,47.561028 
	C274.109192,46.021992 269.969116,45.268433 266.033386,43.960743 
	C258.380676,41.418026 253.352646,33.971073 258.112549,27.377504 
	C259.883575,24.924238 263.423584,23.748016 266.760406,22.132006 
	C267.523651,22.378876 267.683441,22.483185 267.843201,22.587496 
z"/>
<path fill="#080808" opacity="1.000000" stroke="none" 
	d="
M32.927601,21.984169 
	C35.907501,21.984169 38.398739,21.984169 41.427284,21.984169 
	C41.510342,23.844379 41.587471,25.571898 41.688385,27.832106 
	C34.757820,27.832106 28.035107,27.832106 20.932941,27.832106 
	C20.932941,31.720661 20.932941,35.105888 20.932941,38.991631 
	C26.767351,38.991631 32.672649,38.991631 38.733734,38.991631 
	C38.733734,41.429981 38.733734,43.378578 38.733734,45.831738 
	C32.905891,45.831738 27.000019,45.831738 20.646784,45.831738 
	C20.646784,52.043255 20.646784,57.777355 20.646784,63.755871 
	C18.286175,63.755871 16.381271,63.755871 14.223216,63.755871 
	C14.223216,50.051876 14.223216,36.312851 14.223216,21.984169 
	C20.267170,21.984169 26.353052,21.984169 32.927601,21.984169 
z"/>
<path fill="#000000" opacity="1.000000" stroke="none" 
	d="
M110.037628,43.009445 
	C110.037628,50.135014 110.037628,56.762802 110.037628,63.694481 
	C107.777046,63.694481 105.704910,63.694481 103.275528,63.694481 
	C103.275528,52.177052 103.275528,40.449947 103.275528,28.164276 
	C99.083557,28.164276 95.218979,28.164276 91.183380,28.164276 
	C91.183380,25.869978 91.183380,24.135303 91.183380,22.200390 
	C101.752762,22.200390 112.147720,22.200390 122.771317,22.200390 
	C122.771317,24.052298 122.771317,25.786877 122.771317,27.999741 
	C119.961548,27.999741 117.161110,28.230974 114.415115,27.943056 
	C110.720047,27.555624 109.747322,29.162189 109.986778,32.546425 
	C110.220726,35.852818 110.037643,39.188717 110.037628,43.009445 
z"/>
<path fill="#070707" opacity="1.000000" stroke="none" 
	d="
M179.176239,89.520195 
	C176.254929,81.989311 178.916153,75.568947 184.936249,75.007942 
	C188.958572,74.633102 191.980957,76.091293 193.351700,80.164360 
	C194.800186,84.468460 194.432449,88.648643 190.755386,91.439110 
	C186.802429,94.438934 182.786224,93.174026 179.176239,89.520195 
M191.965775,81.945969 
	C190.634216,77.876266 187.788589,75.844879 183.709274,77.224396 
	C179.940689,78.498825 179.636292,82.028198 180.012543,85.526077 
	C180.427689,89.385696 183.022202,91.083824 186.442917,90.896637 
	C191.446152,90.622856 192.025482,86.776817 191.965775,81.945969 
z"/>
<path fill="#020202" opacity="1.000000" stroke="none" 
	d="
M273.996521,89.837753 
	C273.996399,84.726967 273.996399,80.102440 273.996399,75.272278 
	C278.173187,75.272278 282.042236,75.272278 285.911285,75.272278 
	C285.954498,75.696732 285.997711,76.121185 286.040894,76.545647 
	C283.858887,76.698418 281.592224,76.544357 279.525299,77.114418 
	C278.199982,77.479950 277.169098,78.913010 276.006226,79.867523 
	C277.133514,80.910225 278.101532,82.422768 279.429657,82.872948 
	C280.979431,83.398277 282.843750,82.995644 284.566956,84.004585 
	C282.779419,84.004585 280.849274,83.588135 279.249268,84.135887 
	C277.960693,84.577019 276.088684,86.341331 276.232361,87.236656 
	C276.453766,88.616287 277.980560,90.463959 279.309784,90.834137 
	C281.462036,91.433502 283.903168,90.995468 286.222321,90.995468 
	C286.212585,91.645844 286.202881,92.296211 286.193146,92.946587 
	C282.403076,92.946587 278.610138,93.008781 274.828247,92.832939 
	C274.512878,92.818275 274.272095,91.198204 273.996521,89.837753 
z"/>
<path fill="#0D0D0D" opacity="1.000000" stroke="none" 
	d="
M221.003311,74.974854 
	C223.858658,74.974846 226.247330,74.974846 228.636002,74.974846 
	C228.661041,75.524902 228.686081,76.074951 228.711105,76.625008 
	C225.660736,76.824608 222.610367,77.024208 219.559235,77.218796 
	C218.289352,81.873833 218.289352,81.873833 227.612518,83.923279 
	C224.879135,83.923279 222.145737,83.923279 219.012161,83.923279 
	C219.090317,86.844376 217.037537,90.069748 221.448380,90.882423 
	C223.881485,91.330704 226.464966,90.962715 228.980652,90.962715 
	C228.982788,91.452316 228.984909,91.941910 228.987045,92.431511 
	C225.138824,92.431511 221.290604,92.431511 216.976135,92.431511 
	C216.976135,87.591064 217.116531,82.490913 216.924438,77.403328 
	C216.805710,74.259102 218.867920,75.076622 221.003311,74.974854 
z"/>
<path fill="#060606" opacity="1.000000" stroke="none" 
	d="
M65.988457,82.082550 
	C65.988457,79.423553 65.988457,77.246666 65.988457,75.069786 
	C66.577858,74.706688 67.167259,74.343582 67.756660,73.980476 
	C66.944984,81.445160 69.332893,84.992531 76.732155,82.453819 
	C76.899872,80.296204 77.105362,77.652763 77.310844,75.009323 
	C77.673309,75.018555 78.035774,75.027794 78.398239,75.037033 
	C78.398239,80.990631 78.398239,86.944229 78.398239,92.897835 
	C78.083885,92.948059 77.769524,92.998291 77.455170,93.048515 
	C77.218452,90.221436 76.981743,87.394363 76.670540,83.677704 
	C73.896919,84.145439 70.345428,83.750618 68.621147,85.339149 
	C67.154503,86.690346 67.793457,90.327072 67.500832,92.952606 
	C66.996712,92.945251 66.492584,92.937897 65.988457,92.930542 
	C65.988457,89.475250 65.988457,86.019958 65.988457,82.082550 
z"/>
<path fill="#080808" opacity="1.000000" stroke="none" 
	d="
M152.717377,80.343269 
	C152.009842,78.418198 151.531540,76.825958 151.053223,75.233711 
	C151.506088,75.060089 151.958939,74.886459 152.411804,74.712837 
	C154.255447,79.488548 156.099091,84.264259 158.429825,90.301704 
	C160.656738,84.265923 162.408218,79.518776 164.159683,74.771629 
	C164.656311,74.970085 165.152939,75.168541 165.649567,75.366997 
	C163.494736,81.343315 161.339920,87.319633 159.185089,93.295959 
	C158.629166,93.310692 158.073242,93.325432 157.517319,93.340172 
	C155.993744,89.118813 154.470154,84.897453 152.717377,80.343269 
z"/>
<path fill="#070707" opacity="1.000000" stroke="none" 
	d="
M89.216179,76.408699 
	C92.947998,73.314827 96.249268,74.849220 99.070351,77.675148 
	C102.010139,80.620018 101.788452,87.317261 98.982201,90.483208 
	C96.074051,93.764114 92.934402,93.847023 88.250900,90.236008 
	C88.421463,89.577621 88.548393,89.450958 88.969543,89.565308 
	C96.225433,92.555092 99.183372,90.563271 98.988396,83.257927 
	C98.835518,77.529930 97.910507,76.889717 89.875122,76.915237 
	C89.515366,76.625839 89.365768,76.517273 89.216179,76.408699 
z"/>
<path fill="#040404" opacity="1.000000" stroke="none" 
	d="
M60.721474,75.859573 
	C55.408752,76.499329 54.322083,79.611267 54.939575,84.314568 
	C55.311069,87.144142 55.007866,90.062309 55.007866,92.940659 
	C54.514122,92.971062 54.020374,93.001457 53.526630,93.031860 
	C53.526630,87.863632 53.526630,82.695396 53.526630,77.469109 
	C51.188362,77.068283 49.589302,76.794167 47.990242,76.520058 
	C48.005188,76.155029 48.020134,75.789993 48.035080,75.424965 
	C52.251095,75.424965 56.467113,75.424965 60.721474,75.859573 
z"/>
<path fill="#000000" opacity="1.000000" stroke="none" 
	d="
M133.484772,77.660698 
	C133.188736,82.990395 133.188736,87.964775 133.188736,92.939163 
	C132.578934,92.956924 131.969116,92.974678 131.359314,92.992439 
	C131.359314,87.764450 131.359314,82.536469 131.359314,77.280579 
	C128.761749,77.042709 126.901764,76.872383 125.041786,76.702057 
	C125.048401,76.348366 125.055023,75.994682 125.061638,75.640991 
	C129.379105,75.640991 133.696564,75.640991 138.014023,75.640991 
	C138.059357,75.907600 138.104691,76.174202 138.150009,76.440811 
	C136.693619,76.729004 135.237228,77.017197 133.484772,77.660698 
z"/>
<path fill="#0A0A0A" opacity="1.000000" stroke="none" 
	d="
M204.284027,90.965515 
	C206.816162,90.979622 208.887833,90.979622 210.959488,90.979622 
	C210.985901,91.433952 211.012314,91.888283 211.038727,92.342613 
	C207.544006,92.342613 204.049286,92.342613 200.422974,92.342613 
	C200.422974,86.884583 200.422974,80.993011 200.422974,75.101433 
	C200.932495,75.089493 201.442017,75.077553 201.951538,75.065620 
	C201.951538,78.672134 201.756439,82.293869 202.035919,85.878601 
	C202.170563,87.605499 203.199554,89.262672 204.284027,90.965515 
z"/>
<path fill="#080808" opacity="1.000000" stroke="none" 
	d="
M118.172874,91.165054 
	C115.677475,91.524567 112.804329,92.798157 110.799820,91.969795 
	C109.026123,91.236816 107.507919,88.281677 107.146637,86.097565 
	C106.552849,82.507828 106.985725,78.748268 106.985725,75.060310 
	C107.639534,75.055840 108.293350,75.051376 108.947159,75.046906 
	C108.947159,77.965584 108.943253,80.884270 108.947929,83.802940 
	C108.959267,90.878914 109.450081,91.310944 117.286240,90.714226 
	C117.911041,90.853081 118.041962,91.009071 118.172874,91.165054 
z"/>
<path fill="#141414" opacity="1.000000" stroke="none" 
	d="
M238.892883,80.103271 
	C238.224426,81.254265 237.085648,82.363602 236.979309,83.564369 
	C236.705109,86.660538 236.887512,89.797142 236.887512,92.917595 
	C236.386215,92.900459 235.884903,92.883331 235.383606,92.866196 
	C235.383606,86.979904 235.383606,81.093613 235.383606,73.681984 
	C237.177094,76.047615 238.246338,77.457954 239.315216,79.313553 
	C239.174210,79.873627 239.033554,79.988449 238.892883,80.103271 
z"/>
<path fill="#080808" opacity="1.000000" stroke="none" 
	d="
M17.162537,90.484161 
	C16.016687,85.139374 15.026196,80.180046 14.035705,75.220711 
	C14.381377,75.127945 14.727049,75.035172 15.072721,74.942406 
	C16.252405,79.289436 17.432091,83.636475 18.781412,88.608597 
	C19.813334,87.249100 20.234173,86.694672 20.655010,86.140244 
	C20.935184,86.233261 21.215361,86.326286 21.495535,86.419312 
	C20.913233,88.664101 20.330933,90.908890 19.457453,94.276184 
	C18.260923,92.371078 17.789410,91.620346 17.162537,90.484161 
z"/>
<path fill="#000000" opacity="1.000000" stroke="none" 
	d="
M248.000000,85.889427 
	C248.000000,88.493835 248.000000,90.620560 248.000000,92.747292 
	C247.446487,92.763580 246.892990,92.779869 246.339478,92.796158 
	C242.880753,87.037956 247.784439,80.950684 245.883896,75.131165 
	C246.589264,75.096367 247.294632,75.061562 248.000000,75.026764 
	C248.000000,78.488426 248.000000,81.950081 248.000000,85.889427 
z"/>
<path fill="#383838" opacity="1.000000" stroke="none" 
	d="
M42.804939,86.855362 
	C42.804924,89.174774 42.804924,91.022781 42.804924,92.870781 
	C42.334007,92.859108 41.863091,92.847443 41.392174,92.835770 
	C41.392174,86.944237 41.392174,81.052696 41.392174,75.161163 
	C41.863098,75.142776 42.334026,75.124390 42.804951,75.105995 
	C42.804951,78.865318 42.804951,82.624634 42.804939,86.855362 
z"/>
<path fill="#303030" opacity="1.000000" stroke="none" 
	d="
M170.907532,80.164001 
	C170.981400,78.155617 171.055267,76.625656 171.129135,75.095688 
	C171.502365,75.102737 171.875610,75.109779 172.248840,75.116829 
	C172.248840,81.017639 172.248840,86.918442 172.248840,92.819252 
	C171.801743,92.857033 171.354630,92.894814 170.907532,92.932594 
	C170.907532,90.990906 170.907532,89.049210 170.907532,87.107521 
	C170.907532,84.952484 170.907532,82.797455 170.907532,80.164001 
z"/>
<path fill="#080808" opacity="1.000000" stroke="none" 
	d="
M117.600311,90.450172 
	C117.732788,85.147369 118.045097,80.091499 118.357399,75.035622 
	C119.005890,75.067101 119.654373,75.098579 120.302864,75.130058 
	C119.820320,80.334534 119.337776,85.539009 118.514053,90.954269 
	C118.041962,91.009071 117.911041,90.853081 117.600311,90.450172 
z"/>
<path fill="#070707" opacity="1.000000" stroke="none" 
	d="
M88.104034,89.894150 
	C83.611992,85.438393 83.861794,80.965652 88.934128,76.634430 
	C89.365768,76.517273 89.515366,76.625839 89.729439,77.247673 
	C85.607918,81.246529 86.277191,85.201790 88.675331,89.324303 
	C88.548393,89.450958 88.421463,89.577621 88.104034,89.894150 
z"/>
<path fill="#080808" opacity="1.000000" stroke="none" 
	d="
M256.916992,90.091560 
	C252.721527,85.233963 253.051239,80.511559 258.300690,76.664261 
	C258.862518,76.801514 258.977448,76.947937 259.092346,77.094353 
	C255.647934,80.555893 255.175674,84.482285 257.290344,89.270676 
	C257.186005,89.852364 257.051483,89.971962 256.916992,90.091560 
z"/>
<path fill="#080808" opacity="1.000000" stroke="none" 
	d="
M257.534698,89.568451 
	C261.357025,91.916000 264.578217,91.662674 267.467285,86.992805 
	C266.641357,93.493752 262.935303,94.485161 257.062439,90.431534 
	C257.051483,89.971962 257.186005,89.852364 257.534698,89.568451 
z"/>
<path fill="#080808" opacity="1.000000" stroke="none" 
	d="
M258.595520,76.420944 
	C263.361847,73.687866 266.502228,74.837814 267.400238,78.621765 
	C265.145813,78.140076 262.525146,77.580139 259.498413,77.057274 
	C258.977448,76.947937 258.862518,76.801514 258.595520,76.420944 
z"/>
<path fill="#141414" opacity="1.000000" stroke="none" 
	d="
M240.938614,83.017769 
	C240.278610,82.264130 239.618591,81.510490 238.925735,80.430054 
	C239.033554,79.988449 239.174210,79.873627 239.540192,79.605797 
	C240.412506,80.444138 241.059494,81.435486 241.526566,82.753006 
	C241.346664,83.079178 240.938614,83.017769 240.938614,83.017769 
z"/>
<path fill="#000000" opacity="1.000000" stroke="none" 
	d="
M272.468292,14.540506 
	C273.715088,14.717362 274.781677,15.063449 275.848236,15.409535 
	C275.768494,15.783414 275.688751,16.157291 275.608978,16.531170 
	C274.467133,16.261791 273.325317,15.992413 272.063171,15.393390 
	C271.942902,15.063745 272.288086,14.709738 272.468292,14.540506 
z"/>
<path fill="#000000" opacity="1.000000" stroke="none" 
	d="
M240.970856,83.413361 
	C240.938614,83.017769 241.346664,83.079178 241.551086,83.051140 
	C242.480515,84.177444 243.205521,85.331795 243.930542,86.486137 
	C243.561798,86.731155 243.193069,86.976173 242.824326,87.221184 
	C242.217255,86.083771 241.610184,84.946358 240.970856,83.413361 
z"/>
<path fill="#F9F9F9" opacity="1.000000" stroke="none" 
	d="
M300.967133,100.423538 
	C301.148071,100.205826 301.324188,100.327957 301.764252,100.266594 
	C302.028229,101.029984 302.028229,101.976875 302.028229,102.923767 
	C301.812531,102.950745 301.596802,102.977715 301.381104,103.004692 
	C301.241516,102.257591 301.101929,101.510490 300.967133,100.423538 
z"/>
<path fill="#030303" opacity="1.000000" stroke="none" 
	d="
M267.141602,22.094307 
	C267.501678,21.671206 268.084045,21.428362 268.666443,21.185520 
	C268.551941,21.533567 268.437439,21.881609 268.083069,22.408573 
	C267.683441,22.483185 267.523651,22.378876 267.141602,22.094307 
z"/>
<path fill="#FFFFFF" opacity="1.000000" stroke="none" 
	d="
M193.641785,39.991455 
	C189.236755,39.991489 185.291412,39.991489 181.033493,39.991489 
	C181.033493,35.986229 181.033493,32.279144 181.033493,28.014702 
	C185.836624,28.014702 190.591827,27.806095 195.318481,28.083584 
	C198.824844,28.289434 200.051025,30.760567 200.019012,34.113991 
	C199.980774,38.118881 198.078079,40.049679 193.641785,39.991455 
z"/>
<path fill="#FEFEFE" opacity="1.000000" stroke="none" 
	d="
M191.975891,82.356125 
	C192.025482,86.776817 191.446152,90.622856 186.442917,90.896637 
	C183.022202,91.083824 180.427689,89.385696 180.012543,85.526077 
	C179.636292,82.028198 179.940689,78.498825 183.709274,77.224396 
	C187.788589,75.844879 190.634216,77.876266 191.975891,82.356125 
z"/>
<path fill="#FEFEFE" opacity="1.000000" stroke="none" 
	d="
M88.969543,89.565308 
	C86.277191,85.201790 85.607918,81.246529 89.939606,77.428497 
	C97.910507,76.889717 98.835518,77.529930 98.988396,83.257927 
	C99.183372,90.563271 96.225433,92.555092 88.969543,89.565308 
z"/>
</svg>